<?xml version="1.0" encoding="UTF-8"?>
<svg id="Layer_2" data-name="Layer 2" xmlns="http://www.w3.org/2000/svg" viewBox="0 0 917.7 764.75">
  <defs>
    <style>
      .cls-1 {
        fill: #ebebec;
      }
    </style>
  </defs>
  <g id="Layer_1-2" data-name="Layer 1">
    <path class="cls-1" d="M152.95,611.8H0V152.95h152.95v458.85ZM621.08,436.45h0c-29.87-29.87-29.87-78.29,0-108.15h0c29.87-29.87,29.87-78.29,0-108.15h0c-29.87-29.87-78.29-29.87-108.15,0h0c-29.87,29.87-78.29,29.87-108.15,0h0c-29.87-29.87-78.29-29.87-108.15,0h0c-29.87,29.87-29.87,78.29,0,108.15h0c29.87,29.87,29.87,78.29,0,108.15h0c-29.87,29.87-29.87,78.29,0,108.15h0c29.87,29.87,78.29,29.87,108.15,0h0c29.87-29.87,78.29-29.87,108.15,0h0c29.87,29.87,78.29,29.87,108.15,0h0c29.87-29.87,29.87-78.29,0-108.15ZM152.95,0h0S0,0,0,0v152.95h0c84.47,0,152.95-68.48,152.95-152.95ZM305.9,0h0S152.95,0,152.95,0v152.95h0c84.47,0,152.95-68.48,152.95-152.95ZM0,611.8h0v152.95h152.95c0-84.47-68.48-152.95-152.95-152.95ZM152.95,611.8h0v152.95h152.95c0-84.47-68.48-152.95-152.95-152.95ZM764.75,611.8h152.95s0-458.85,0-458.85h-152.95s0,458.85,0,458.85ZM917.7,152.95h0V0s-152.95,0-152.95,0h0c0,84.47,68.48,152.95,152.95,152.95ZM764.75,152.95h0V0s-152.95,0-152.95,0h0c0,84.47,68.48,152.95,152.95,152.95ZM764.75,764.75h0s152.95,0,152.95,0v-152.95s0,0,0,0c-84.47,0-152.95,68.48-152.95,152.95ZM611.8,764.75h0s152.95,0,152.95,0v-152.95s0,0,0,0c-84.47,0-152.95,68.48-152.95,152.95Z"/>
  </g>
</svg>
